<svg width="768" height="78" viewBox="0 0 768 78" fill="none" xmlns="http://www.w3.org/2000/svg">
<g filter="url(#filter0_b_104_2454)">
<rect width="768" height="78" fill="#AB1EAA" fill-opacity="0.8"/>
<path d="M70.0299 54H60.4478L48 24H56.1045L65.1045 47.194H65.5522L74.4179 24H82.4776L70.0299 54Z" fill="white"/>
<path d="M90.6227 54H83.9062V24H90.6227V54Z" fill="white"/>
<path d="M108.959 54H94.4965V24H108.959C118.586 24 124.676 29.597 124.676 39C124.676 48.403 118.586 54 108.959 54ZM108.959 30.0448H101.213V47.9552H108.959C115.049 47.9552 117.511 46.209 117.511 39C117.511 31.791 115.049 30.0448 108.959 30.0448Z" fill="white"/>
<path d="M134.306 54H127.589V24H134.306V35.9104H141.783L149.753 24H157.813L147.38 38.7761L157.679 54H149.619L141.873 42.4478H134.306V54Z" fill="white"/>
<path d="M166.226 54H159.51V24H166.226V54Z" fill="white"/>
<path d="M186.443 54H179.727V30.0448H168.578V24H197.592V30.0448H186.443V54Z" fill="white"/>
<path d="M700 31.5H716" stroke="white" stroke-width="1.5" stroke-linecap="round" stroke-linejoin="round"/>
<path d="M700 41.5H716" stroke="white" stroke-width="1.5" stroke-linecap="round" stroke-linejoin="round"/>
<path d="M700 36.5H716" stroke="white" stroke-width="1.5" stroke-linecap="round" stroke-linejoin="round"/>
<path d="M700 46.5H716" stroke="white" stroke-width="1.5" stroke-linecap="round" stroke-linejoin="round"/>
</g>
<defs>
<filter id="filter0_b_104_2454" x="-12" y="-12" width="792" height="102" filterUnits="userSpaceOnUse" color-interpolation-filters="sRGB">
<feFlood flood-opacity="0" result="BackgroundImageFix"/>
<feGaussianBlur in="BackgroundImageFix" stdDeviation="6"/>
<feComposite in2="SourceAlpha" operator="in" result="effect1_backgroundBlur_104_2454"/>
<feBlend mode="normal" in="SourceGraphic" in2="effect1_backgroundBlur_104_2454" result="shape"/>
</filter>
</defs>
</svg>
