<svg width="100" height="20" viewBox="0 0 100 20" fill="none" xmlns="http://www.w3.org/2000/svg">
<path d="M14.6866 20H8.29851L0 0H5.40299L11.403 15.4627H11.7015L17.6119 0H22.9851L14.6866 20Z" fill="white"/>
<path d="M28.4151 20H23.9375V0H28.4151V20Z" fill="white"/>
<path d="M40.6395 20H30.9977V0H40.6395C47.0574 0 51.1171 3.73134 51.1171 10C51.1171 16.2687 47.0574 20 40.6395 20ZM40.6395 4.02985H35.4753V15.9701H40.6395C44.6992 15.9701 46.341 14.806 46.341 10C46.341 5.19403 44.6992 4.02985 40.6395 4.02985Z" fill="white"/>
<path d="M57.5371 20H53.0595V0H57.5371V7.9403H62.5221L67.8356 0H73.2087L66.2535 9.85075L73.1192 20H67.746L62.5818 12.2985H57.5371V20Z" fill="white"/>
<path d="M78.8174 20H74.3398V0H78.8174V20Z" fill="white"/>
<path d="M92.2955 20H87.8179V4.02985H80.385V0H99.7283V4.02985H92.2955V20Z" fill="white"/>
</svg>
