<svg width="200" height="40" viewBox="0 0 200 40" fill="none" xmlns="http://www.w3.org/2000/svg">
<path d="M29.3731 40H16.597L0 0H10.806L22.806 30.9254H23.403L35.2239 0H45.9701L29.3731 40Z" fill="white"/>
<path d="M56.8302 40H47.875V0H56.8302V40Z" fill="white"/>
<path d="M81.2789 40H61.9953V0H81.2789C94.1147 0 102.234 7.46269 102.234 20C102.234 32.5373 94.1147 40 81.2789 40ZM81.2789 8.0597H70.9506V31.9403H81.2789C89.3983 31.9403 92.6819 29.6119 92.6819 20C92.6819 10.3881 89.3983 8.0597 81.2789 8.0597Z" fill="white"/>
<path d="M115.074 40H106.119V0H115.074V15.8806H125.044L135.671 0H146.417L132.507 19.7015L146.238 40H135.492L125.164 24.597H115.074V40Z" fill="white"/>
<path d="M157.635 40H148.68V0H157.635V40Z" fill="white"/>
<path d="M184.591 40H175.636V8.0597H160.77V0H199.457V8.0597H184.591V40Z" fill="white"/>
</svg>
